<svg width="164" height="75" viewBox="0 0 164 75" fill="none" xmlns="http://www.w3.org/2000/svg">
<path fill-rule="evenodd" clip-rule="evenodd" d="M114.68 29.9206C113.875 31.1114 111.996 33.3268 109.241 32.8766C107.894 32.6478 53.1068 21.5234 52.9705 21.514C52.5851 21.4094 52.6373 20.5838 53.3364 20.6669L114.314 29.0857C114.404 29.099 114.489 29.1351 114.562 29.1905C114.634 29.2459 114.691 29.3189 114.728 29.4024C114.764 29.486 114.779 29.5775 114.77 29.6683C114.762 29.7591 114.73 29.8463 114.679 29.9216L114.68 29.9206ZM112.623 9.95064L104.398 14.1703C104.398 14.1703 102.488 13.0122 104.637 12.039C105.191 11.7896 106.454 11.0677 107.477 10.5353C108.04 10.243 108 9.41828 107.403 9.17825L101.287 6.7238C102.321 5.89818 103.929 5.40691 105.462 5.86736C106.349 6.1382 110.065 7.70539 112.508 8.72901C113.259 9.04283 113.082 9.72088 112.623 9.95064ZM93.2373 15.5918C92.36 16.2185 86.5827 15.1397 86.5827 15.1397C86.5827 15.1397 92.976 9.45657 99.0567 8.72901C100.865 8.51233 104.523 9.93009 104.523 9.93009C104.523 9.93009 96.3687 13.3353 93.2373 15.5918ZM155.616 15.2882C152.912 9.36691 150.929 4.31044 150.219 3.10002C148.153 -0.399533 145.074 -0.211808 142.433 0.248636C135.387 1.45905 132.643 2.70216 120.221 6.00278C118.394 6.50432 114.95 7.51767 113.05 6.85922C108.019 5.13606 106.496 3.75753 104.085 4.02932C100.347 4.45707 92.6661 8.0715 84.3259 14.1703C81.7172 16.0503 82.0187 18.2947 81.5595 19.7778C81.4661 20.1009 81.6752 20.4148 82.0093 20.4558C83.2199 20.5819 96.4545 21.7326 97.0603 21.8166C96.9691 21.771 96.8924 21.7009 96.8389 21.6141C96.7853 21.5273 96.7569 21.4274 96.7569 21.3254C96.7569 21.1479 96.8409 20.9705 97.0285 20.8771C100.807 18.8392 114.523 11.5701 122.81 8.30126C134.145 3.79956 136.88 3.31857 140.324 2.99542C141.129 2.92164 142.256 2.97394 143.08 3.02624C143.748 3.07854 144.333 3.48575 144.542 4.10217C146.107 8.69726 150.689 19.0801 153.11 22.5162C153.11 22.5162 152.683 23.3306 151.868 23.3726C151.232 23.3829 149.937 22.1818 149.134 21.472C149.045 21.3995 148.936 21.3565 148.822 21.3489C148.708 21.3414 148.594 21.3697 148.497 21.43C134.908 29.8169 125.106 33.4725 123.697 33.9731C123.582 34.017 123.454 34.0137 123.342 33.9637L116.401 31.3739C116.401 31.3739 116.662 31.1534 117.309 29.859C117.444 29.5564 117.518 29.2108 117.508 28.9923C117.455 27.8846 116.391 27.6343 115.911 27.5708C114.063 27.342 64.4524 20.0197 52.0111 18.7971C46.7284 18.2648 41.709 20.9705 39.538 23.8013L39.5483 23.8732L46.5931 31.2207C46.6674 31.3005 46.7652 31.3545 46.8722 31.375C46.9793 31.3955 47.0901 31.3814 47.1885 31.3346L52.7316 28.7831C52.7316 28.7831 53.4932 31.1329 52.783 31.5298C48.1807 34.0571 43.7231 36.3136 39.4129 38.5794C37.6797 39.4984 37.7217 41.229 37.158 43.6667C36.9228 44.6866 36.8034 45.6205 36.8034 45.6205C36.8034 45.6205 46.468 40.7733 52.3872 37.9434C52.5953 37.85 52.8259 37.8901 52.992 38.0573C53.8376 38.967 54.1157 39.1752 54.6898 39.7496C54.7484 39.8075 54.7925 39.8784 54.8185 39.9566C54.8446 40.0347 54.8518 40.1179 54.8396 40.1994C54.8274 40.2809 54.7961 40.3583 54.7484 40.4254C54.7006 40.4925 54.6377 40.5474 54.5647 40.5855C53.1647 41.3262 51.7255 42.0892 50.6186 42.7467C49.7412 43.2697 50.6335 45.0144 50.6335 45.0144L66.7176 37.3895C66.7176 37.3895 67.72 38.3814 65.9448 39.4788C63.2008 41.202 37.8365 54.142 35.6553 54.1952C29.9042 54.3409 19.0486 43.5107 15.1239 41.8595C11.8152 40.4707 8.25642 42.7374 3.42362 45.5785C2.10762 46.3612 2.91215 48.2515 2.91215 48.2515L9.91589 44.7015C9.91589 44.7015 10.782 45.7036 9.81135 46.3079C6.41869 48.4607 1.51402 50.6126 0.761756 51.1552C-0.345177 51.9491 0.0804232 55.6681 0.0804232 55.6681L6.70709 52.5954C6.90495 52.501 7.15602 52.5318 7.24936 52.6262L21.4491 66.1546C22.2742 65.9454 23.046 65.7157 24.0792 65.2673L12.2324 52.6589C12.1765 52.5987 12.1353 52.5264 12.112 52.4477C12.0887 52.3689 12.0839 52.2858 12.0981 52.2049C12.1123 52.124 12.1451 52.0475 12.1938 51.9814C12.2425 51.9153 12.3059 51.8614 12.379 51.8239C13.5895 51.2075 15.0408 50.7592 17.0867 52.3254C18.8087 53.6311 24.8306 58.5083 30.6555 57.9862C32.5968 57.819 32.6285 58.4149 32.6285 58.4149C32.6285 58.4149 30.1552 59.6057 27.2208 61.213C25.7704 62.0181 26.9502 64.1382 26.9502 64.1382C41.9581 57.9768 60.4437 50.309 63.0319 49.192C63.1192 49.1568 63.2142 49.145 63.3075 49.1578C63.4008 49.1705 63.4892 49.2074 63.5639 49.2648L67.9067 52.7112C68.5227 53.6731 99.3973 41.7969 108.917 36.9823C109.449 36.7208 114.291 36.9403 116.629 36.9197C117.705 36.9197 117.664 37.3895 117.664 37.3895C117.664 37.3895 40.393 68.2121 21.437 67.5014L21.4071 67.5219L17.3667 69.2563C19.7374 70.8226 19.1727 73.5273 23.2019 71.439C23.4418 71.9928 23.7246 72.5784 24.0158 73.2042C24.7998 74.9077 24.7998 74.917 29.9237 73.1724C44.4221 68.2635 109.626 48.7642 124.228 42.7159C132.475 39.3116 143.873 34.611 150.981 30.2036C157.994 25.8682 159.426 23.6332 155.616 15.2882Z" fill="#FF267E"/>
<path d="M133.913 14.5728C135.481 9.81897 136.476 5.7002 136.476 5.7002C136.787 7.26178 136.538 12.2305 135.673 16.7994L139.671 21.854L137.305 22.9309L134.947 19.9441C134.333 22.1417 133.543 23.9769 132.566 24.8828L128.276 26.8348C129.99 24.6905 131.601 21.0527 132.935 17.3943L128.655 11.9718L131.009 10.9005L133.913 14.5728Z" fill="#FF267E"/>
<path d="M103.102 22.534L125.73 26.9292L130.16 18.5992L125.725 13.4419L103.102 22.534Z" fill="#FF267E"/>
<path d="M153.573 5.01807C156.068 4.86117 160.232 4.89292 162.435 5.38418C163.353 5.59246 163.593 6.28266 163.208 7.15871C161.945 9.94846 159.94 12.7578 157.811 14.7425C157.749 14.7948 157.665 14.8471 157.581 14.8882C157.185 15.0554 156.631 14.9928 156.444 14.6071C155.039 11.835 153.768 8.99752 152.634 6.10427C152.509 5.79139 152.686 5.38419 152.968 5.17498C153.012 5.1296 153.066 5.09397 153.125 5.07037C153.187 5.04889 153.25 5.03956 153.302 5.02835C153.395 5.01807 153.468 5.01807 153.573 5.01807Z" fill="#FF267E"/>
<path d="M153.927 6.73115L155.201 9.6666L162.185 6.63682C162.185 6.63682 162.154 6.32394 161.276 6.14649C159.627 5.82241 154.356 6.01013 154.356 6.01013C154.304 6.02134 154.262 6.04189 154.22 6.06243C153.698 6.29312 153.927 6.73115 153.927 6.73115Z" fill="#161774"/>
</svg>
