<svg width="224" height="98" viewBox="0 0 224 98" fill="none" xmlns="http://www.w3.org/2000/svg">
<path fill-rule="evenodd" clip-rule="evenodd" d="M74.3175 28.809L67.7207 55.0421C67.171 57.1398 65.9343 58.9442 64.0014 60.4488C62.0694 61.9525 60.0254 62.709 57.8853 62.709L66.4234 28.809H55.8674L54.7763 33.9486L46.3157 67.8486H56.5805C61.5878 67.8486 66.3469 65.9928 70.8642 62.2878C75.3825 58.5837 78.2515 54.2259 79.4882 49.2142L83.3018 33.9486L84.5898 28.809H74.3175Z" fill="#FF267E"/>
<path fill-rule="evenodd" clip-rule="evenodd" d="M102.775 12.7878C101.916 11.7651 100.773 11.2496 99.3468 11.2496C97.9132 11.2496 96.6074 11.7651 95.4137 12.7878C94.2284 13.8105 93.5153 15.0396 93.2829 16.4667C93.0337 17.9536 93.3436 19.1995 94.2022 20.2222C95.0525 21.2458 96.1949 21.7613 97.621 21.7613C99.0556 21.7613 100.37 21.2364 101.563 20.1885C102.749 19.1397 103.471 17.9022 103.702 16.4667C103.935 15.0396 103.625 13.8105 102.775 12.7869V12.7878ZM93.1457 58.8751C93.1634 58.7724 93.197 58.6435 93.2484 58.4885C93.3006 58.3334 93.3352 58.2391 93.3436 58.1793L100.687 28.809H83.6733L82.376 33.9486H89.1865L83.0713 58.1793C82.9854 58.3941 82.9164 58.6949 82.8473 59.1077C82.4096 61.7639 83.0881 63.869 84.8745 65.4343C86.6618 66.9894 89.3153 67.772 92.8461 67.772H94.3749L95.6806 62.6315C93.6366 62.3308 92.7854 61.0765 93.1466 58.8751H93.1457ZM121.448 56.882C121.036 58.4632 120.126 59.8212 118.717 60.9466C117.308 62.073 115.805 62.6315 114.224 62.6315C111.261 62.6315 110.016 61.2044 110.48 58.3334C110.489 58.2914 110.523 58.1625 110.582 57.9561C110.643 57.7497 110.677 57.5947 110.694 57.4919L115.616 37.7825C116.286 35.23 117.694 33.9486 119.842 33.9486H127.203L121.448 56.882ZM131.008 59.796C131.025 59.6923 131.06 59.5896 131.103 59.4859C131.146 59.3832 131.172 59.2879 131.188 59.1852L138.774 28.809H121.07C117.385 28.809 113.958 29.8494 110.789 31.921C107.611 33.9916 105.644 36.588 104.879 39.6999L100.601 56.882C100.491 57.2056 100.413 57.5394 100.369 57.8786C99.8974 60.7412 100.73 63.105 102.878 64.9692C105.024 66.8343 107.834 67.7711 111.313 67.7711H112.919C115.934 67.7711 118.734 66.7232 121.329 64.6255C122.625 66.7232 125.056 67.772 128.629 67.772H132.237L133.534 62.6315C131.558 62.5288 130.716 61.5836 131.008 59.796ZM180.828 38.8575L180.69 39.6999L176.421 56.8811C175.966 58.721 175.218 60.1388 174.188 61.1362C173.158 62.1328 172.083 62.6315 170.959 62.6315C169.937 62.6315 169.155 62.1757 168.613 61.2474C168.072 60.3284 167.926 59.159 168.158 57.7235C168.184 57.5808 168.222 57.4403 168.27 57.3033C168.321 57.1221 168.356 56.9857 168.372 56.8811L172.641 39.6999C173.071 38.0151 173.784 36.6477 174.772 35.5998C175.76 34.551 176.868 34.0261 178.096 34.0261C179.118 34.0261 179.892 34.4483 180.415 35.2907C180.939 36.1406 181.085 37.3267 180.828 38.8575ZM188.644 31.6109C186.522 29.7467 183.731 28.809 180.252 28.809H178.646C174.858 28.809 171.405 29.8578 168.278 31.9555C165.151 34.0523 163.21 36.6393 162.454 39.6999L158.099 56.8811C157.993 57.2061 157.915 57.5399 157.868 57.8786C157.387 60.7925 158.22 63.1648 160.376 65.0131C162.524 66.8521 165.366 67.772 168.888 67.772H170.417C174.153 67.772 177.59 66.7064 180.75 64.5919C183.911 62.4681 185.861 59.8987 186.617 56.8811L190.964 39.6999L191.126 38.7109C191.591 35.8408 190.766 33.4769 188.643 31.6109" fill="#FF267E"/>
<mask id="mask0_12_16" style="mask-type:alpha" maskUnits="userSpaceOnUse" x="190" y="28" width="34" height="40">
<path d="M190.268 28.809H223.706V67.7711H190.268V28.809Z" fill="white"/>
</mask>
<g mask="url(#mask0_12_16)">
<path fill-rule="evenodd" clip-rule="evenodd" d="M220.262 28.809C216.122 28.809 212.54 29.9092 209.525 32.1096L210.298 28.809H200.077L190.268 67.7711H200.541L205.875 46.4552C206.553 43.842 207.884 41.4006 209.869 39.133C211.853 36.8541 214.086 35.2813 216.586 34.4137L215.366 39.4757H220.966L223.707 28.809H220.263H220.262Z" fill="#FF267E"/>
</g>
<path fill-rule="evenodd" clip-rule="evenodd" d="M26.2668 40.1968L26.2836 40.081L30.9941 21.6866C31.3413 20.1484 32.0693 18.8745 33.1763 17.8816C34.2841 16.8898 35.5404 16.3929 36.9124 16.3929C38.2023 16.3929 39.1431 16.8235 39.7721 17.7005C40.3835 18.5597 40.5981 19.6683 40.3835 20.9927L40.2687 21.6866L35.5572 40.081L35.5236 40.1968H26.2668ZM47.7064 14.1598C45.3591 12.2246 42.2025 11.2496 38.2181 11.2496C33.8716 11.2496 30.0524 12.3414 26.7297 14.5091C23.4071 16.675 21.3071 19.5525 20.4148 23.1427L16.1495 40.081C12.5468 40.081 9.20733 40.0969 6.61173 40.0969C2.94373 40.0969 0 43.0921 0 46.7644H14.4639L9.19053 67.7711H19.3732L24.6633 46.7644H33.9369L30.6479 59.7988C30.5489 60.0463 30.4817 60.3779 30.4164 60.7916C30.0524 62.9911 30.4817 64.7105 31.7212 65.9359C32.9448 67.1594 34.8133 67.7711 37.3091 67.7711H41.3756L42.6823 62.6269C41.2104 62.5279 40.5981 61.734 40.8473 60.2611L50.1527 23.1427C50.1695 23.0268 50.2031 22.8279 50.2861 22.53C50.3683 22.2162 50.4009 22.0163 50.4168 21.9014C50.9469 18.6923 50.0369 16.1118 47.7064 14.1598ZM157.825 28.809L160.153 19.7673H149.879L147.63 28.809H142.587L141.281 33.9486H146.332L140.2 58.2568C140.181 58.3596 140.139 58.5408 140.07 58.7985C140.002 59.0563 139.967 59.2282 139.95 59.3402C139.52 61.9441 140.027 63.9988 141.462 65.5109C142.905 67.0146 145.078 67.7711 147.989 67.7711H151.598L152.912 62.554C150.799 62.3569 149.922 61.1531 150.283 58.9536C150.3 58.8499 150.335 58.7201 150.386 58.5669C150.429 58.4109 150.465 58.3166 150.473 58.2568L156.596 33.9486H160.968L162.275 28.809H157.825ZM44.8149 0V0.0205421L44.8457 0H44.8149Z" fill="#FF267E"/>
<path fill-rule="evenodd" clip-rule="evenodd" d="M142.558 86.0142H81.1477C80.4075 86.0122 79.6981 85.7171 79.1746 85.1933C78.6512 84.6695 78.3562 83.9596 78.3542 83.2189C78.3565 82.4783 78.6515 81.7686 79.1749 81.245C79.6984 80.7214 80.4076 80.4264 81.1477 80.4244H142.558C143.298 80.4264 144.008 80.7214 144.531 81.245C145.054 81.7686 145.349 82.4783 145.352 83.2189C145.35 83.9596 145.055 84.6695 144.531 85.1933C144.008 85.7171 143.299 86.0122 142.558 86.0142ZM131.386 97.0069H92.3197C91.5796 97.005 90.8704 96.71 90.3469 96.1864C89.8235 95.6628 89.5285 94.9531 89.5262 94.2125C89.5282 93.4718 89.8232 92.7619 90.3466 92.2381C90.8701 91.7143 91.5795 91.4191 92.3197 91.4172H131.386C132.127 91.4191 132.836 91.7143 133.359 92.2381C133.883 92.7619 134.178 93.4718 134.18 94.2125C134.178 94.9531 133.882 95.6628 133.359 96.1864C132.836 96.71 132.126 97.005 131.386 97.0069Z" fill="#FF267E"/>
</svg>
