<svg width="38" height="83" viewBox="0 0 38 83" fill="none" xmlns="http://www.w3.org/2000/svg">
<path fill-rule="evenodd" clip-rule="evenodd" d="M11.6798 18.6222L11.5753 18.6848L11.5034 18.5914C11.1478 18.1207 2.7142 7.12233 1.597 5.08629C0.78313 3.56113 1.74353 2.08827 1.7846 2.0257L1.88913 1.86879L2.00486 2.0257C2.07673 2.14057 9.24753 12.7009 11.8263 16.773C12.6094 18.0058 11.691 18.6119 11.6798 18.6222ZM14.2894 19.7196C13.3187 16.4283 11.6593 14.298 10.2191 12.1153C9.49859 11.0179 4.22713 3.15299 2.3698 0.384725C2.02446 -0.135492 1.2526 -0.125219 0.908196 0.3978C0.145664 1.53443 -0.187536 2.96526 0.10553 4.11403C0.574063 5.9418 3.82019 18.0684 5.76153 22.5383L13.8405 36.7747C14.0393 36.5561 14.2885 36.3675 14.5713 36.2423C14.7701 36.1583 14.9782 36.1069 15.177 36.0966C16.241 36.0229 17.9117 36.0331 19.4237 36.0649L14.2894 19.7196Z" fill="#FF267E"/>
<path fill-rule="evenodd" clip-rule="evenodd" d="M37.7854 78.6275C37.3252 76.7895 33.9652 64.5994 32.0229 60.1294L23.1721 44.2334C22.3265 45.3719 21.3354 46.5935 20.3852 47.4808C20.2079 47.6274 20.0203 47.7526 19.8009 47.8572C19.5303 47.9721 19.2577 48.0346 18.9861 48.0449L23.7564 63.7233C24.3432 65.8053 25.5806 67.6298 26.8 69.4277C27.0549 69.8034 27.3089 70.1779 27.556 70.5534C28.2766 71.6293 33.3492 79.2019 35.3008 82.1065C35.7078 82.7117 36.6168 82.7323 37.0126 82.1158C37.7219 81.0296 38.0672 79.7146 37.7854 78.6275ZM35.9411 80.0883L35.8366 80.2555L35.7227 80.0883C35.649 79.9837 28.4894 69.4355 25.9003 65.3504C25.1172 64.1185 26.0366 63.5021 26.0366 63.5021L26.1402 63.4404L26.213 63.5338C26.5789 63.9924 35.0227 75.0019 36.1185 77.0286C36.9538 78.5435 35.9831 80.0267 35.9411 80.0883Z" fill="#FF267E"/>
</svg>
