<svg width="34" height="91" viewBox="0 0 34 91" fill="none" xmlns="http://www.w3.org/2000/svg">
<path fill-rule="evenodd" clip-rule="evenodd" d="M19.3217 21.7622L19.2008 21.7768L19.1731 21.6623C19.0395 21.0877 15.8056 7.61062 15.6126 5.29624C15.4891 3.57194 16.9653 2.61673 17.0283 2.57625L17.1875 2.47539L17.2295 2.6658C17.2485 2.79997 19.5067 15.3634 20.2074 20.1322C20.4216 21.5769 19.3361 21.7573 19.3217 21.7622ZM21.2598 23.8257C21.711 20.4241 21.0609 17.803 20.6325 15.2234C20.4203 13.9279 18.8015 4.59917 18.23 1.31491C18.126 0.699234 17.4166 0.394826 16.8894 0.732661C15.7306 1.46113 14.8445 2.63292 14.6452 3.80162C14.3302 5.662 12.3661 18.0609 12.3225 22.934L13.9161 39.2253C14.1865 39.1064 14.4909 39.0354 14.8002 39.036C15.016 39.04 15.227 39.0777 15.4128 39.1491C16.4149 39.5143 17.9371 40.2029 19.3056 40.8466L21.2598 23.8257Z" fill="#FF267E"/>
<path fill-rule="evenodd" clip-rule="evenodd" d="M18.7781 87.1979C19.105 85.3316 20.9909 72.8283 21.0336 67.9548L19.4096 49.8335C18.1741 50.5299 16.7719 51.243 15.5431 51.6674C15.3215 51.7293 15.0992 51.7674 14.8563 51.7738C14.5623 51.7687 14.2879 51.7151 14.0356 51.614L12.0199 67.8777C11.7096 70.0184 12.0985 72.1883 12.4817 74.3267C12.5617 74.7735 12.6416 75.219 12.7147 75.6625C12.9356 76.9385 14.4916 85.9192 15.0938 89.3664C15.2196 90.0848 16.0418 90.4731 16.6539 90.0708C17.7436 89.3668 18.5937 88.3058 18.7781 87.1979ZM16.4993 87.7828L16.3358 87.8931L16.2997 87.694C16.2749 87.5685 14.0219 75.0207 13.3172 70.2358C13.1026 68.7919 14.1931 68.6025 14.1931 68.6025L14.3128 68.5883L14.3414 68.7032C14.4892 69.2709 17.728 82.7624 17.9052 85.0595C18.0525 86.7831 16.5627 87.7436 16.4993 87.7828Z" fill="#FF267E"/>
</svg>
