<svg width="445" height="139" viewBox="0 0 445 139" fill="none" xmlns="http://www.w3.org/2000/svg">
<path d="M444.093 0H0V75.9093H444.093V0Z" fill="#FF267E"/>
<path d="M144.035 36.4682H117.605V29.102H149.578V18.9333H102.28V56.8056H117.605V46.6369H144.035V36.4682Z" fill="#000055"/>
<path d="M228.039 44.1563L214.015 18.9333H196.422L219.203 56.8056H236.658L259.42 18.9333H242.082L228.039 44.1563Z" fill="#000055"/>
<path d="M308.549 37.5665C312.054 36.2618 314.401 33.0332 314.466 29.4239C314.466 23.2129 309.003 18.9333 298.254 18.9333H263.559V56.8056H299.062C310.601 56.8056 315.729 52.4314 315.729 46.0878C315.65 42.5467 313.421 39.3465 308.549 37.5665ZM278.49 28.0984H295.591C295.786 28.0605 295.985 28.0416 296.184 28.0416C297.841 28.0416 299.202 29.3501 299.202 30.9388C299.202 32.5276 297.841 33.8361 296.184 33.8361C295.985 33.8361 295.786 33.8171 295.591 33.7792H278.49V28.0984ZM296.833 47.792H278.49V42.1112H296.833C297.029 42.0733 297.228 42.0544 297.427 42.0544C299.084 42.0544 300.445 43.3628 300.445 44.9516C300.445 46.5403 299.084 47.8488 297.427 47.8488C297.228 47.8488 297.029 47.8299 296.833 47.792Z" fill="#000055"/>
<path d="M338.251 41.9786H364.641V33.7603H338.251V29.102H367.422V18.9333H322.925V56.8056H368.112V46.6369H338.251V41.9786Z" fill="#000055"/>
<path d="M374.445 18.9333V29.102H391.644V56.8056H407.147V29.102H424.326V18.9333H374.445Z" fill="#000055"/>
<path d="M167.385 18.9333L144.624 56.8056H160.916L163.993 51.2195H188.332L191.409 56.8056H208.371L185.59 18.9333H167.385ZM169.358 41.3916L176.083 29.1967L182.809 41.3916H169.358Z" fill="#000055"/>
<path d="M20.3855 33.7777L33.9752 56.8041H51.4308L37.8214 33.7777H20.3855Z" fill="#000055"/>
<path d="M65.0212 33.7777L51.4315 56.8041H68.8674L82.4571 33.7777H65.0212Z" fill="#000055"/>
<path d="M51.4306 10.8078L37.8212 33.7774H65.0203L51.4306 10.8078Z" fill="#000055"/>
<path d="M195.773 75.2381H0.535645V138.501H195.773V75.2381Z" fill="#000055"/>
<path d="M44.0736 111.41C43.8922 112.688 43.5293 113.827 42.9124 114.897C42.2956 115.968 41.461 116.866 40.4813 117.625C39.5015 118.419 38.3404 119.006 37.0341 119.421C35.6915 119.87 34.2401 120.077 32.6798 120.077C30.7203 120.077 28.9786 119.766 27.4546 119.145C25.9306 118.558 24.6605 117.694 23.6082 116.52C22.5197 115.381 21.7577 114.034 21.2134 112.411C20.6691 110.788 20.3788 108.993 20.3788 106.99C20.3788 105.022 20.6691 103.227 21.2497 101.638C21.8302 100.05 22.6648 98.7032 23.7534 97.5983C24.8057 96.4934 26.112 95.6301 27.6723 95.0431C29.1963 94.4561 30.9017 94.1454 32.8249 94.1454C34.3852 94.1454 35.8004 94.3526 37.0704 94.7324C38.3404 95.1467 39.4653 95.7337 40.445 96.4588C41.4247 97.2185 42.223 98.1163 42.8399 99.1521C43.4567 100.223 43.8559 101.397 44.0736 102.709H39.1387C38.8847 101.845 38.5581 101.086 38.159 100.499C37.7235 99.9118 37.2518 99.4629 36.7075 99.0831C36.1269 98.7032 35.5464 98.4615 34.8932 98.2889C34.2038 98.1508 33.5143 98.0817 32.7886 98.0817C31.8089 98.0817 30.8655 98.2544 30.0309 98.6342C29.16 99.0485 28.398 99.601 27.7811 100.361C27.1643 101.12 26.6563 102.053 26.2934 103.158C25.9306 104.262 25.7491 105.54 25.7491 106.99C25.7491 108.475 25.9306 109.822 26.2934 110.927C26.6563 112.066 27.1643 113.033 27.7811 113.793C28.398 114.587 29.1237 115.174 29.9583 115.554C30.7929 115.933 31.6638 116.141 32.6072 116.141C33.3692 116.141 34.1312 116.071 34.8206 115.864C35.5101 115.692 36.1632 115.415 36.7438 115.036C37.2881 114.69 37.7961 114.172 38.1952 113.585C38.5944 112.998 38.921 112.273 39.1387 111.41H44.0736Z" fill="#FF267E"/>
<path d="M58.4418 94.5881H63.667L73.5005 119.622H67.8762L66.0256 114.546H55.7929L53.9423 119.622H48.6445L58.4418 94.5881ZM57.2806 110.506H64.5378L60.9092 100.631L57.2806 110.506Z" fill="#FF267E"/>
<path d="M86.4904 108.648C85.4381 108.441 84.4221 108.164 83.4787 107.784C82.499 107.405 81.6644 106.921 80.9749 106.334C80.2492 105.747 79.6686 105.057 79.2695 104.228C78.8341 103.434 78.6163 102.467 78.6163 101.397C78.6163 100.119 78.9429 99.0486 79.5961 98.1163C80.2129 97.2185 81.0475 96.4589 82.0635 95.8719C83.0432 95.2849 84.1681 94.8705 85.4381 94.5598C86.6719 94.2835 87.9056 94.1454 89.103 94.1454C90.4456 94.1454 91.7519 94.3181 92.9856 94.6979C94.1831 95.0777 95.2717 95.5956 96.2151 96.2517C97.1585 96.9423 97.9205 97.771 98.5011 98.7378C99.0454 99.7046 99.372 100.775 99.4446 101.984H94.4371C94.3282 101.258 94.1105 100.637 93.7476 100.119C93.3848 99.6356 92.9494 99.2212 92.4413 98.9105C91.9333 98.6342 91.3528 98.3925 90.7359 98.2544C90.119 98.1508 89.5022 98.0818 88.8853 98.0818C88.2684 98.0818 87.6879 98.1508 87.071 98.2544C86.4541 98.358 85.9098 98.5306 85.4381 98.7723C84.9664 99.0486 84.5673 99.3593 84.277 99.7392C83.9504 100.154 83.8053 100.637 83.8053 101.189C83.8053 102.053 84.1681 102.743 84.8576 103.261C85.547 103.779 86.4179 104.124 87.4702 104.297L90.9173 104.884C91.9696 105.057 93.0582 105.333 94.1468 105.644C95.1991 105.954 96.1788 106.403 97.0497 106.956C97.8843 107.543 98.5737 108.268 99.118 109.131C99.6623 110.029 99.9163 111.134 99.9163 112.411C99.9163 113.689 99.626 114.828 99.0091 115.761C98.3923 116.728 97.5577 117.522 96.578 118.178C95.562 118.834 94.4008 119.283 93.1671 119.593C91.8971 119.939 90.5908 120.077 89.2482 120.077C87.6153 120.077 86.1639 119.87 84.8576 119.455C83.515 119.076 82.3901 118.489 81.4104 117.729C80.4306 117.004 79.6686 116.106 79.0881 115.001C78.5075 113.931 78.1446 112.722 78.0358 111.376H83.0432C83.1884 112.308 83.4424 113.067 83.8415 113.654C84.2407 114.276 84.7124 114.759 85.293 115.139C85.8373 115.519 86.4904 115.761 87.2161 115.899C87.9056 116.072 88.6676 116.141 89.4296 116.141C90.0102 116.141 90.627 116.072 91.2439 115.968C91.8608 115.864 92.4051 115.657 92.9494 115.381C93.4574 115.139 93.8928 114.794 94.2194 114.311C94.5459 113.862 94.6911 113.309 94.6911 112.653C94.6911 112.135 94.5822 111.652 94.3282 111.272C94.0742 110.892 93.7476 110.581 93.3122 110.305C92.8768 110.063 92.3688 109.822 91.7882 109.649C91.1713 109.476 90.5182 109.338 89.8287 109.235L86.4904 108.648Z" fill="#FF267E"/>
<path d="M111.931 94.5881H106.742V119.622H111.931V94.5881Z" fill="#FF267E"/>
<path d="M135.693 119.622L125.17 100.527V119.622H120.271V94.5881H127.021L137.544 113.683V94.5881H142.442V119.622H135.693Z" fill="#FF267E"/>
<path d="M155.108 107.094C155.108 108.579 155.325 109.856 155.725 110.996C156.124 112.135 156.632 113.067 157.321 113.827C158.011 114.587 158.809 115.174 159.716 115.554C160.623 115.933 161.603 116.141 162.619 116.141C163.635 116.141 164.615 115.933 165.522 115.554C166.429 115.174 167.227 114.587 167.917 113.827C168.606 113.067 169.15 112.135 169.55 110.996C169.912 109.856 170.13 108.579 170.13 107.094C170.13 105.609 169.912 104.332 169.55 103.192C169.15 102.087 168.606 101.155 167.917 100.395C167.227 99.6356 166.429 99.0486 165.522 98.6688C164.615 98.2889 163.635 98.0818 162.619 98.0818C161.603 98.0818 160.623 98.2889 159.716 98.6688C158.809 99.0486 158.011 99.6356 157.321 100.395C156.632 101.155 156.124 102.087 155.725 103.192C155.325 104.332 155.108 105.609 155.108 107.094ZM175.5 107.094C175.5 109.028 175.21 110.789 174.593 112.377C173.976 114 173.142 115.346 172.017 116.486C170.856 117.66 169.513 118.523 167.953 119.145C166.356 119.766 164.578 120.077 162.619 120.077C160.659 120.077 158.881 119.766 157.321 119.145C155.725 118.523 154.382 117.66 153.257 116.486C152.096 115.346 151.261 114 150.644 112.377C150.028 110.789 149.737 109.028 149.737 107.094C149.737 105.16 150.028 103.399 150.644 101.776C151.261 100.188 152.096 98.8414 153.257 97.7019C154.382 96.5625 155.725 95.6992 157.321 95.0777C158.881 94.4562 160.659 94.1454 162.619 94.1454C164.578 94.1454 166.356 94.4562 167.953 95.0777C169.513 95.6992 170.856 96.5625 172.017 97.7019C173.142 98.8414 173.976 100.188 174.593 101.776C175.21 103.399 175.5 105.16 175.5 107.094Z" fill="#FF267E"/>
<path fill-rule="evenodd" clip-rule="evenodd" d="M196.304 75.2271C196.304 74.9456 196.066 74.7173 195.77 74.7173H0.533289C0.237912 74.7173 0 74.9456 0 75.2271V138.49C0 138.772 0.237912 139 0.533289 139H195.77C196.066 139 196.304 138.772 196.304 138.49V75.2271ZM195.237 75.737V137.98H1.06658V75.737H195.237Z" fill="#FF267E"/>
</svg>
