<svg width="73" height="80" viewBox="0 0 73 80" fill="none" xmlns="http://www.w3.org/2000/svg">
<path d="M72.2502 43.4601C72.2502 59.2635 56.3786 72.3114 36.4758 72.3114C16.573 72.3114 0.701338 59.2635 0.701338 43.4601C0.701338 27.6566 16.573 14.6087 36.4758 14.6087C56.3786 14.6087 72.2502 27.6566 72.2502 43.4601Z" fill="#000055" stroke="#EDEDED" stroke-width="1.40292"/>
<path d="M34.0576 55V45.3928H24.1361V40.5892H34.0576V30.9371H38.9958V40.5892H48.8724V45.3928H38.9958V55H34.0576Z" fill="#EDEDED"/>
<path d="M34.0576 55H32.6546V56.4029H34.0576V55ZM34.0576 45.3928H35.4605V43.9899H34.0576V45.3928ZM24.1361 45.3928H22.7332V46.7957H24.1361V45.3928ZM24.1361 40.5892V39.1863H22.7332V40.5892H24.1361ZM34.0576 40.5892V41.9921H35.4605V40.5892H34.0576ZM34.0576 30.9371V29.5342H32.6546V30.9371H34.0576ZM38.9958 30.9371H40.3988V29.5342H38.9958V30.9371ZM38.9958 40.5892H37.5929V41.9921H38.9958V40.5892ZM48.8724 40.5892H50.2753V39.1863H48.8724V40.5892ZM48.8724 45.3928V46.7957H50.2753V45.3928H48.8724ZM38.9958 45.3928V43.9899H37.5929V45.3928H38.9958ZM38.9958 55V56.4029H40.3988V55H38.9958ZM35.4605 55V45.3928H32.6546V55H35.4605ZM34.0576 43.9899H24.1361V46.7957H34.0576V43.9899ZM25.539 45.3928V40.5892H22.7332V45.3928H25.539ZM24.1361 41.9921H34.0576V39.1863H24.1361V41.9921ZM35.4605 40.5892V30.9371H32.6546V40.5892H35.4605ZM34.0576 32.34H38.9958V29.5342H34.0576V32.34ZM37.5929 30.9371V40.5892H40.3988V30.9371H37.5929ZM38.9958 41.9921H48.8724V39.1863H38.9958V41.9921ZM47.4695 40.5892V45.3928H50.2753V40.5892H47.4695ZM48.8724 43.9899H38.9958V46.7957H48.8724V43.9899ZM37.5929 45.3928V55H40.3988V45.3928H37.5929ZM38.9958 53.5971H34.0576V56.4029H38.9958V53.5971Z" fill="#EDEDED"/>
</svg>
